<?xml version="1.0" encoding="UTF-8"?>
<svg width="760px" height="153px" viewBox="0 0 760 153" version="1.1" xmlns="http://www.w3.org/2000/svg" xmlns:xlink="http://www.w3.org/1999/xlink">
    <!-- Generator: Sketch 54.1 (76490) - https://sketchapp.com -->
    <title>Artboard</title>
    <desc>Created with Sketch.</desc>
    <g id="Artboard" stroke="none" stroke-width="1" fill="none" fill-rule="evenodd">
        <g id="eurorescue_logo" fill-rule="nonzero">
            <g id="Group" transform="translate(37.000000, 35.000000)" fill="#303080">
                <path d="M19.6,49.4 C20.4,54.3 27.5,64.9 40.3,64.9 C48.3,64.9 54.3,61.5 57.7,55.3 L76.7,55.3 C72.4,68.9 58,81.5 40.4,81.5 C18,81.5 0.7,63.6 0.7,41.6 C0.7,20.3 17.1,0.8 40.3,0.8 C64.2,0.8 79.2,21.4 79.2,40.4 C79.2,43.9 78.7,47 78.1,49.5 L19.6,49.4 L19.6,49.4 Z M60.7,34.9 C58.7,22.8 49.3,17.3 40.4,17.3 C33.8,17.3 22.5,21 19.1,34.9 L60.7,34.9 Z" id="Shape"></path>
                <path d="M155,3.7 L155,79 L138.5,79 L138.5,71.4 L138.2,71.4 C135.2,75.5 130.3,81.4 118.8,81.4 C105.1,81.4 97.4,74.6 93.6,69.5 C88,61.5 88,49.3 88,43.1 L88,3.7 L106,3.7 L106,42.1 C106,48.2 106,64.9 121.7,64.9 C133.1,64.9 136.9,54.2 136.9,42.3 L136.9,3.7 L155,3.7 Z" id="Path"></path>
                <path d="M166.1,3.7 L182.6,3.7 L182.6,10.3 L182.9,10.3 C186.3,5.4 189.7,1.1 199,1.1 L200.5,1.1 L200.5,18.6 C184.1,19.3 184.1,32.2 184.1,36.6 L184.1,79 L166.1,79 L166.1,3.7 L166.1,3.7 Z" id="Path"></path>
                <path d="M202.3,41.4 C202.3,18.6 220.9,1.1 242.4,1.1 C263.7,1.1 282.3,18 282.3,41.1 C282.3,65.8 263.3,81.4 242.4,81.4 C220.1,81.4 202.3,63 202.3,41.4 Z M264.3,41.6 C264.3,27.9 253.7,17.7 242.5,17.7 C233.1,17.7 220.4,25.7 220.4,41.4 C220.4,55.6 231.1,64.9 242.5,64.9 C255.6,64.9 264.3,53.5 264.3,41.6 Z" id="Shape"></path>
            </g>
            <g id="Group" transform="translate(330.000000, 35.000000)" fill="#D8272F">
                <path d="M0.2,3.7 L16.7,3.7 L16.7,10.3 L17,10.3 C20.4,5.4 23.8,1.1 33.1,1.1 L34.6,1.1 L34.6,18.6 C18.2,19.3 18.2,32.2 18.2,36.6 L18.2,79 L0.2,79 L0.2,3.7 L0.2,3.7 Z" id="Path"></path>
                <path d="M58.3,49.4 C59.1,54.3 66.2,64.9 79,64.9 C87,64.9 93,61.5 96.4,55.3 L115.4,55.3 C111.1,68.9 96.7,81.5 79.1,81.5 C56.7,81.5 39.4,63.6 39.4,41.6 C39.4,20.3 55.8,0.8 79,0.8 C102.9,0.8 117.9,21.4 117.9,40.4 C117.9,43.9 117.4,47 116.8,49.5 L58.3,49.4 L58.3,49.4 Z M99.3,34.9 C97.3,22.8 87.9,17.3 79,17.3 C72.4,17.3 61.1,21 57.7,34.9 L99.3,34.9 Z" id="Shape"></path>
                <path d="M158.3,24.2 C157.1,18.2 153,17.7 151.1,17.7 C146.6,17.7 144.2,21.1 144.2,24.2 C144.2,28.5 147.3,29.5 156.9,32.6 C166.3,35.4 177.9,39.9 177.9,55.1 C177.9,72 164.5,81.4 151.6,81.4 C144.1,81.4 134.9,78.8 129.1,71.5 C124.5,65.8 123.8,59.8 123.4,55.2 L141.8,55.2 C142.6,58.6 144.2,64.8 151.7,64.8 C157.5,64.8 159.8,60.3 159.8,57.2 C159.8,51.6 155.7,50.3 142.9,45.9 C134.4,43.1 126.1,36.7 126.1,24.3 C126.1,9.7 139.3,1 151.3,1 C162.6,1 175.2,9.1 175.8,24 L158.3,24 L158.3,24.2 L158.3,24.2 Z" id="Path"></path>
                <path d="M263.2,54.4 C257.1,71.2 243.1,81.4 225.5,81.4 C206.2,81.4 185.5,65.9 185.5,41 C185.5,18 204.6,1.1 225.4,1.1 C234.9,1.1 255.5,5.4 263.2,28.6 L242.9,28.6 C240.7,24.8 236.5,17.6 225.4,17.6 C214.4,17.6 203.6,25.7 203.6,41.2 C203.6,54.1 212.7,64.8 226.2,64.8 C232.2,64.8 238.1,62 242.9,54.4 C242.9,54.4 263.2,54.4 263.2,54.4 Z" id="Path"></path>
                <path d="M340,3.7 L340,79 L323.5,79 L323.5,71.4 L323.2,71.4 C320.2,75.5 315.3,81.4 303.8,81.4 C290.1,81.4 282.4,74.6 278.6,69.5 C273,61.5 273,49.3 273,43.1 L273,3.7 L291,3.7 L291,42.1 C291,48.2 291,64.9 306.7,64.9 C318.1,64.9 321.9,54.2 321.9,42.3 L321.9,3.7 L340,3.7 Z" id="Path"></path>
                <path d="M369.8,49.4 C370.6,54.3 377.7,64.9 390.5,64.9 C398.5,64.9 404.5,61.5 407.9,55.3 L426.9,55.3 C422.6,68.9 408.2,81.5 390.6,81.5 C368.2,81.5 350.9,63.6 350.9,41.6 C350.9,20.3 367.3,0.8 390.5,0.8 C414.4,0.8 429.4,21.4 429.4,40.4 C429.4,43.9 428.9,47 428.3,49.5 L369.8,49.4 L369.8,49.4 Z M410.8,34.9 C408.8,22.8 399.4,17.3 390.5,17.3 C383.9,17.3 372.6,21 369.2,34.9 L410.8,34.9 Z" id="Shape"></path>
            </g>
            <g id="Group" fill="#FFC856">
                <polygon id="Path" points="110.7 9.7 113.1 17.2 121 17.2 114.6 21.8 117.1 29.2 110.7 24.6 104.4 29.2 106.8 21.8 100.5 17.2 108.3 17.2"></polygon>
                <polygon id="Path" points="76.9 0 79.3 7.4 87.1 7.4 80.8 12 83.2 19.5 76.9 14.9 70.6 19.5 73 12 66.7 7.4 74.5 7.4"></polygon>
                <polygon id="Path" points="43.9 9.7 46.3 17.2 54.1 17.2 47.8 21.8 50.2 29.2 43.9 24.6 37.6 29.2 40 21.8 33.7 17.2 41.5 17.2"></polygon>
                <polygon id="Path" points="18.9 33.3 21.3 40.7 29.1 40.7 22.8 45.3 25.2 52.7 18.9 48.1 12.6 52.7 15 45.3 8.7 40.7 16.5 40.7"></polygon>
                <polygon id="Path" points="10.2 66.6 12.6 74 20.5 74 14.1 78.6 16.5 86 10.2 81.4 3.9 86 6.3 78.6 0 74 7.8 74"></polygon>
                <polygon id="Path" points="18.9 99.9 21.3 107.3 29.1 107.3 22.8 111.9 25.2 119.3 18.9 114.7 12.6 119.3 15 111.9 8.7 107.3 16.5 107.3"></polygon>
                <polygon id="Path" points="43.9 124.6 46.3 132 54.1 132 47.8 136.6 50.2 144 43.9 139.4 37.6 144 40 136.6 33.7 132 41.5 132"></polygon>
                <polygon id="Path" points="76.9 132.7 79.3 140.2 87.1 140.2 80.8 144.8 83.2 152.2 76.9 147.6 70.6 152.2 73 144.8 66.7 140.2 74.5 140.2"></polygon>
                <polygon id="Path" points="110.7 124.6 113.1 132 121 132 114.6 136.6 117.1 144 110.7 139.4 104.4 144 106.8 136.6 100.5 132 108.3 132"></polygon>
            </g>
        </g>
    </g>
</svg>